<?xml version="1.0" standalone="no"?><!DOCTYPE svg PUBLIC "-//W3C//DTD SVG 1.1//EN" "http://www.w3.org/Graphics/SVG/1.1/DTD/svg11.dtd"><svg t="1564310146898" class="icon" viewBox="0 0 1024 1024" version="1.1" xmlns="http://www.w3.org/2000/svg" p-id="6515" xmlns:xlink="http://www.w3.org/1999/xlink" width="200" height="200"><defs><style type="text/css"></style></defs><path d="M512 960C264.576 960 64 759.424 64 512S264.576 64 512 64s448 200.576 448 448-200.576 448-448 448z m0-64c212.074667 0 384-171.925333 384-384S724.074667 128 512 128 128 299.925333 128 512s171.925333 384 384 384z m-169.386667-403.882667l124.8 125.226667 237.76-242.88a30.378667 30.378667 0 0 1 43.050667-0.384c11.989333 11.818667 12.16 31.146667 0.384 43.157333L503.317333 667.776a50.624 50.624 0 0 1-71.722666-0.021333l-132.010667-132.48a30.592 30.592 0 0 1 0-43.178667 30.378667 30.378667 0 0 1 43.050667 0z" p-id="6516" fill="#cccccc"></path></svg>