<?xml version="1.0" standalone="no"?><!DOCTYPE svg PUBLIC "-//W3C//DTD SVG 1.1//EN" "http://www.w3.org/Graphics/SVG/1.1/DTD/svg11.dtd"><svg t="1564310186812" class="icon" viewBox="0 0 1024 1024" version="1.1" xmlns="http://www.w3.org/2000/svg" p-id="6695" xmlns:xlink="http://www.w3.org/1999/xlink" width="200" height="200"><defs><style type="text/css"></style></defs><path d="M853.333333 256v618.666667a85.333333 85.333333 0 0 1-85.333333 85.333333H256a85.333333 85.333333 0 0 1-85.333333-85.333333V256H117.333333a32 32 0 0 1 0-64h789.333334a32 32 0 0 1 0 64H853.333333z m-64 0H234.666667v618.666667a21.333333 21.333333 0 0 0 21.333333 21.333333h512a21.333333 21.333333 0 0 0 21.333333-21.333333V256z m-202.666666 138.666667a32 32 0 0 1 64 0v362.666666a32 32 0 0 1-64 0v-362.666666z m-149.333334 362.666666a32 32 0 0 1-64 0v-362.666666a32 32 0 0 1 64 0v362.666666z m170.666667-693.333333a32 32 0 0 1 0 64h-192a32 32 0 0 1 0-64h192z" p-id="6696" fill="#cccccc"></path></svg>